<svg id="Layer_1" height="512" viewBox="0 0 100 100" width="512" xmlns="http://www.w3.org/2000/svg"><path d="m25 54.997c-.391 0-.755.084-1.14.113.104-6.895 2.871-13.131 7.318-17.747-1.186-2.08-2.035-4.372-2.478-6.807-7.048 6.019-11.526 14.951-11.526 24.951 0 .576.052 1.136.084 1.702-4.331 2.632-7.258 7.349-7.258 12.791 0 8.284 6.716 14.997 15 15 8.288 0 15-6.716 15-15 .003-8.291-6.716-15-15-15.003z"/><path d="m64.974 26.409c-.14-8.167-6.774-14.742-14.974-14.742-8.288 0-15 6.712-15 15 0 8.287 6.712 15.003 15 15.003 5.95 0 11.042-3.489 13.467-8.506 5.576 3.379 9.795 8.757 11.631 15.173 2.522.01 4.935.475 7.185 1.282-1.846-10.169-8.413-18.626-17.309-23.21z"/><path d="m74.997 54.997c-8.285.003-14.997 6.715-15 15.003 0 3.099.94 5.979 2.552 8.372-3.73 2.058-7.981 3.295-12.549 3.295-2.171 0-4.271-.293-6.289-.795-1.228 2.106-2.793 3.984-4.629 5.563 3.418 1.209 7.083 1.898 10.918 1.898 6.56 0 12.656-1.943 17.78-5.26 2.149 1.192 4.583 1.927 7.217 1.927 8.287 0 15.003-6.716 15.003-15 0-8.288-6.716-15-15.003-15.003z"/><path d="m58.333 55.508c0 4.603-3.73 8.333-8.333 8.333s-8.333-3.73-8.333-8.333c0-4.606 3.73-8.333 8.333-8.333s8.333 3.726 8.333 8.333z"/></svg>